<svg xmlns="http://www.w3.org/2000/svg" xmlns:xlink="http://www.w3.org/1999/xlink" width="1000" height="1000" viewBox="0 0 1000 1000">
  <defs>
    <linearGradient id="linear-gradient" x1="0.757" y1="0.062" x2="-0.06" y2="1" gradientUnits="objectBoundingBox">
      <stop offset="0" stop-color="#9423fc"/>
      <stop offset="0.51" stop-color="#ff70a5"/>
      <stop offset="1" stop-color="#feaf6d"/>
    </linearGradient>
    <clipPath id="clip-TPH_FINAL">
      <rect width="1000" height="1000"/>
    </clipPath>
  </defs>
  <g id="TPH_FINAL" data-name="TPH FINAL" clip-path="url(#clip-TPH_FINAL)">
    <rect width="1000" height="1000" fill="#fff"/>
    <path id="Path_277" data-name="Path 277" d="M0,0H1000V1000H0Z" fill="#141414"/>
    <g id="Group_25" data-name="Group 25" transform="translate(-37 11)">
      <path id="Path_5" data-name="Path 5" d="M130.827,103.41c60.767.251,121.5,1.794,182.264,1.22,44.732-.43,89.033,21.057,116.188,56.605,22.743,28.626,33.145,65.932,30.993,102.234,1.973,63.887-43.046,125.73-104.817,142.805-18.366,5.668-37.665,5.847-56.713,6.493-12.376.072-23.388,9.972-24.321,22.348-1.9,28.841,0,57.825-.933,86.7-3.264,43.189-32.858,82.863-73.106,98.755-22.1,9.649-46.561,9.04-70.165,8.681-.215-30.312.323-60.587-.287-90.863,15.353-1.829,34.15,2.439,45.736-10.582,9.685-10.367,5.6-25.361,6.851-38.06,2.547-28.948-3.408-59.116,7.174-86.953a131.394,131.394,0,0,1,19.729-35.836c-14.349-19.658-24.07-43.046-25.11-67.546-.717-26.258-.789-52.516-2.475-78.738-.359-12.089-10.51-23.173-22.6-24.285-9.649-1.184-19.371-.933-29.02-1.327.359-30.563-.861-61.161.61-91.652m143.02,98.934c1.22,28.7,2.654,57.466.717,86.164-1.614,16.931,10.51,33.217,27.011,37.02,32.105,8.789,66.4-15.927,72.748-47.638,7.892-32.356-16-67.582-48.427-73.716-15.653-2.745-31.6-1.62-48.526-1.762C276.933,202.41,275.389,202.386,273.847,202.344Z" transform="translate(204.385 133.347)" fill="url(#linear-gradient)"/>
      <path id="Rectangle_70" data-name="Rectangle 70" d="M100.5,0h0A100.5,100.5,0,0,1,201,100.5v0A100.5,100.5,0,0,1,100.5,201H38.807A38.807,38.807,0,0,1,0,162.193V100.5A100.5,100.5,0,0,1,100.5,0Z" transform="translate(606 190)" fill="#eef2f5"/>
      <rect id="Rectangle_71" data-name="Rectangle 71" width="68.004" height="18.391" rx="9.195" transform="translate(631.057 301.975)" fill="#141414"/>
      <rect id="Rectangle_72" data-name="Rectangle 72" width="94.962" height="18.391" rx="9.195" transform="translate(631.057 335.253)" fill="#141414"/>
    </g>
  </g>
</svg>
